<svg xmlns="http://www.w3.org/2000/svg" xmlns:xlink="http://www.w3.org/1999/xlink" width="1000" zoomAndPan="magnify" viewBox="0 0 750 469.499982" height="626" preserveAspectRatio="xMidYMid meet" version="1.0"><path fill="rgb(0%, 0%, 0%)" d="M 294.011719 81.609375 C 269.4375 83.855469 250.484375 91.792969 238.34375 104.820312 C 233.101562 110.511719 230.253906 115.375 227.632812 123.164062 C 225.757812 128.703125 225.609375 130.125 225.535156 141.507812 C 225.535156 156.03125 226.734375 161.273438 232.425781 172.503906 C 235.273438 178.042969 237.296875 180.664062 243.140625 186.429688 C 253.855469 197.210938 264.191406 201.929688 279.777344 203.277344 L 285.917969 203.875 L 280.074219 207.617188 C 264.042969 217.875 255.050781 227.386719 225.609375 265.269531 C 203.882812 293.273438 197.664062 300.757812 187.324219 311.390625 C 158.105469 341.414062 129.9375 356.015625 94.421875 359.382812 C 89.929688 359.757812 85.433594 360.132812 84.535156 360.132812 C 83.261719 360.132812 82.8125 360.582031 82.8125 361.703125 C 82.8125 362.828125 83.933594 363.726562 87.457031 365.296875 C 104.464844 373.011719 128.289062 376.902344 147.691406 375.179688 C 179.234375 372.410156 206.054688 359.832031 230.328125 336.546875 C 245.089844 322.320312 248.160156 318.128906 293.636719 249.921875 C 321.058594 208.667969 327.199219 200.28125 331.621094 197.960938 C 332.820312 197.363281 333.792969 196.238281 333.792969 195.488281 C 333.792969 194.292969 332.894531 194.066406 324.652344 193.691406 C 308.84375 192.945312 298.730469 188.976562 289.964844 180.140625 C 280.300781 170.40625 276.628906 160.449219 276.554688 143.753906 C 276.554688 132.296875 278.054688 125.335938 282.324219 117.175781 C 285.84375 110.511719 293.488281 103.171875 300.230469 99.953125 C 308.546875 95.984375 314.015625 95.085938 330.648438 95.085938 L 345.03125 95.085938 L 345.03125 190.773438 C 345.03125 296.789062 345.332031 291.027344 340.085938 297.089844 C 336.042969 301.882812 331.621094 304.128906 325.476562 304.578125 C 321.058594 304.878906 320.308594 305.101562 320.308594 306.300781 C 320.308594 307.648438 322.179688 307.722656 376.199219 307.722656 C 429.015625 307.722656 432.015625 307.648438 431.789062 306.375 C 431.566406 305.402344 430.515625 305.027344 426.621094 304.652344 C 418.003906 303.902344 412.011719 299.710938 408.414062 292.074219 L 406.839844 288.628906 L 406.839844 95.460938 L 421.226562 95.238281 C 443.777344 94.9375 451.570312 97.332031 461.90625 107.738281 C 470.972656 116.800781 474.492188 125.558594 475.167969 140.832031 C 476.066406 159.402344 470.449219 173.628906 458.460938 183.210938 C 450.070312 190.023438 440.703125 193.09375 426.917969 193.691406 C 419.054688 194.066406 417.703125 194.292969 417.703125 195.339844 C 417.703125 196.011719 418.902344 197.210938 420.402344 198.035156 C 421.898438 198.859375 424.523438 201.179688 426.320312 203.277344 C 428.042969 205.296875 444.824219 229.929688 463.480469 257.933594 C 482.210938 285.933594 500.117188 312.289062 503.339844 316.480469 C 527.3125 347.703125 558.179688 367.621094 591.96875 373.683594 C 604.40625 375.929688 623.511719 375.929688 635.796875 373.757812 C 650.554688 371.0625 669.4375 364.324219 669.4375 361.628906 C 669.4375 360.507812 668.011719 360.28125 659.171875 359.457031 C 617.367188 355.9375 584.625 336.773438 550.164062 295.742188 C 547.914062 293.046875 537.5 279.945312 527.089844 266.542969 C 504.613281 237.71875 499.59375 231.726562 490.300781 222.667969 C 482.660156 215.332031 476.515625 210.390625 469.847656 206.421875 L 465.578125 203.800781 L 472.097656 203.277344 C 493.523438 201.480469 510.832031 189.875 519.96875 171.082031 C 524.691406 161.421875 526.5625 153.113281 526.5625 141.507812 C 526.636719 130.949219 524.992188 123.6875 521.019531 115.75 C 512.480469 98.980469 494.871094 88.046875 468.277344 82.957031 C 460.257812 81.386719 458.011719 81.386719 380.246094 81.160156 C 336.339844 81.085938 297.605469 81.308594 294.011719 81.609375 Z M 294.011719 81.609375 " fill-opacity="1" fill-rule="nonzero"/><path fill="rgb(0%, 0%, 0%)" d="M 283.222656 333.851562 L 283.222656 342.910156 L 287.71875 342.910156 L 287.492188 334.300781 C 287.269531 326.140625 287.34375 325.691406 288.765625 325.691406 C 292.4375 325.691406 293.9375 331.679688 290.714844 333.476562 C 289.890625 333.925781 289.066406 334.375 288.917969 334.453125 C 288.46875 334.675781 295.285156 343.886719 297.382812 345.832031 C 298.65625 347.03125 300.453125 347.703125 303.078125 348.003906 C 305.097656 348.152344 306.824219 348.152344 306.824219 347.929688 C 306.824219 347.703125 305.398438 346.804688 303.675781 345.90625 C 301.804688 345.007812 298.804688 342.3125 296.632812 339.691406 L 292.886719 335.050781 L 294.683594 333.554688 C 296.859375 331.757812 297.15625 328.386719 295.285156 326.589844 C 294.460938 325.691406 292.363281 325.242188 288.617188 325.09375 L 283.222656 324.792969 Z M 283.222656 333.851562 " fill-opacity="1" fill-rule="nonzero"/><path fill="rgb(0%, 0%, 0%)" d="M 384.363281 333.925781 L 384.363281 342.910156 L 388.859375 342.910156 L 388.636719 334.300781 C 388.410156 326.140625 388.484375 325.691406 389.910156 325.691406 C 393.582031 325.691406 395.078125 331.679688 391.855469 333.476562 C 391.03125 333.925781 390.207031 334.375 390.058594 334.453125 C 389.609375 334.675781 396.425781 343.886719 398.523438 345.832031 C 399.875 347.105469 401.597656 347.703125 404.367188 348.003906 C 408.789062 348.378906 408.789062 348.152344 404.445312 345.757812 C 402.71875 344.785156 399.722656 342.011719 397.625 339.542969 L 393.953125 335.050781 L 395.753906 333.628906 C 397.175781 332.578125 397.476562 331.757812 397.328125 329.585938 C 397.027344 326.140625 394.929688 324.941406 388.859375 324.941406 L 384.363281 324.941406 Z M 384.363281 333.925781 " fill-opacity="1" fill-rule="nonzero"/><path fill="rgb(0%, 0%, 0%)" d="M 305.550781 330.78125 C 304.726562 332.730469 303.152344 336.25 302.027344 338.570312 C 300.605469 341.789062 300.378906 342.910156 301.128906 342.910156 C 301.726562 342.910156 302.402344 342.011719 302.628906 340.964844 C 303.078125 339.242188 303.453125 339.09375 306.296875 339.316406 C 308.921875 339.46875 309.519531 339.84375 309.667969 341.191406 C 309.894531 342.613281 310.417969 342.910156 312.515625 342.910156 L 315.0625 342.910156 L 311.242188 335.199219 C 309.144531 331.007812 307.347656 327.488281 307.273438 327.414062 C 307.195312 327.261719 306.375 328.835938 305.550781 330.78125 Z M 308.320312 337.445312 C 308.320312 338.417969 305.175781 338.792969 304.351562 337.96875 C 304.125 337.671875 304.425781 336.472656 305.097656 335.199219 L 306.222656 332.878906 L 307.273438 334.75 C 307.796875 335.722656 308.246094 336.996094 308.320312 337.445312 Z M 308.320312 337.445312 " fill-opacity="1" fill-rule="nonzero"/><path fill="rgb(0%, 0%, 0%)" d="M 314.316406 328.3125 C 314.316406 328.761719 315.589844 328.984375 317.386719 328.835938 L 320.382812 328.535156 L 320.160156 335.722656 L 319.933594 342.910156 L 324.054688 342.910156 L 324.054688 328.535156 L 326.675781 328.835938 C 328.175781 328.984375 329.296875 328.835938 329.296875 328.3125 C 329.296875 327.863281 326.527344 327.5625 321.804688 327.5625 C 317.160156 327.5625 314.316406 327.863281 314.316406 328.3125 Z M 314.316406 328.3125 " fill-opacity="1" fill-rule="nonzero"/><path fill="rgb(0%, 0%, 0%)" d="M 337.164062 327.710938 L 332.671875 328.011719 L 332.671875 342.910156 L 337.613281 342.910156 C 341.585938 342.910156 342.710938 342.6875 343.082031 341.714844 C 343.757812 339.992188 343.160156 339.617188 342.035156 341.039062 C 341.511719 341.640625 339.9375 342.164062 338.589844 342.164062 C 336.117188 342.164062 336.042969 342.089844 336.042969 339.167969 C 336.042969 335.800781 337.539062 334.601562 339.863281 336.097656 C 341.0625 336.773438 341.285156 336.699219 341.285156 335.574219 C 341.285156 334.453125 340.835938 334.300781 338.664062 334.527344 L 336.042969 334.824219 L 336.042969 328.535156 L 339.414062 328.835938 C 341.734375 328.984375 342.785156 328.761719 342.785156 328.160156 C 342.785156 327.636719 342.558594 327.261719 342.261719 327.339844 C 341.886719 327.414062 339.636719 327.5625 337.164062 327.710938 Z M 337.164062 327.710938 " fill-opacity="1" fill-rule="nonzero"/><path fill="rgb(0%, 0%, 0%)" d="M 406.464844 328.011719 C 402.046875 329.808594 400.171875 334.152344 401.972656 338.496094 C 403.246094 341.414062 406.242188 342.910156 410.960938 342.910156 C 414.257812 342.910156 415.15625 342.539062 417.03125 340.742188 C 421 336.773438 419.578125 330.484375 414.257812 328.238281 C 411.410156 327.039062 409.089844 326.964844 406.464844 328.011719 Z M 413.582031 329.808594 C 416.355469 332.503906 415.980469 339.542969 412.910156 341.5625 C 409.613281 343.808594 404.96875 340.292969 404.96875 335.648438 C 404.96875 329.058594 409.6875 325.839844 413.582031 329.808594 Z M 413.582031 329.808594 " fill-opacity="1" fill-rule="nonzero"/><path fill="rgb(0%, 0%, 0%)" d="M 426.695312 328.011719 C 422.347656 329.808594 420.703125 333.402344 422.199219 338.046875 C 423.324219 341.339844 426.171875 342.910156 431.039062 342.910156 C 435.011719 342.910156 437.257812 341.414062 437.109375 338.71875 C 437.109375 337.671875 436.960938 337.597656 436.660156 338.417969 C 435.234375 342.238281 429.691406 343.585938 427.144531 340.742188 C 424.148438 337.445312 425.046875 330.40625 428.644531 328.761719 C 431.265625 327.5625 432.238281 327.710938 434.488281 329.507812 C 436.359375 331.007812 436.433594 331.007812 436.433594 329.585938 C 436.433594 327.414062 430.664062 326.441406 426.695312 328.011719 Z M 426.695312 328.011719 " fill-opacity="1" fill-rule="nonzero"/><path fill="rgb(0%, 0%, 0%)" d="M 464.53125 327.863281 L 460.035156 328.3125 L 460.035156 342.910156 L 465.503906 342.910156 C 470.523438 342.910156 470.898438 342.835938 470.898438 341.265625 C 470.898438 339.765625 470.824219 339.765625 469.550781 340.890625 C 468.800781 341.640625 467.078125 342.164062 465.726562 342.164062 C 463.332031 342.164062 463.332031 342.089844 463.554688 338.945312 C 463.78125 335.875 463.855469 335.800781 466.253906 335.875 C 467.675781 335.949219 468.648438 335.648438 468.648438 335.125 C 468.648438 334.527344 467.75 334.300781 466.027344 334.527344 C 463.40625 334.824219 463.40625 334.824219 463.40625 331.757812 L 463.40625 328.6875 L 466.328125 328.6875 C 467.976562 328.6875 469.472656 329.058594 469.625 329.585938 C 469.847656 330.109375 470.074219 329.808594 470.074219 328.835938 C 470.148438 327.9375 469.925781 327.261719 469.625 327.339844 C 469.25 327.414062 467.003906 327.636719 464.53125 327.863281 Z M 464.53125 327.863281 " fill-opacity="1" fill-rule="nonzero"/><path fill="rgb(0%, 0%, 0%)" d="M 346.90625 335.425781 L 346.90625 342.910156 L 352.375 342.910156 C 357.320312 342.910156 357.769531 342.761719 357.769531 341.339844 C 357.769531 339.917969 357.695312 339.917969 356.570312 341.039062 C 355.820312 341.789062 354.398438 342.164062 352.972656 342.011719 L 350.652344 341.789062 L 350.652344 334.824219 C 350.652344 327.9375 350.652344 327.9375 348.777344 327.9375 C 346.90625 327.9375 346.90625 327.9375 346.90625 335.425781 Z M 346.90625 335.425781 " fill-opacity="1" fill-rule="nonzero"/><path fill="rgb(0%, 0%, 0%)" d="M 440.78125 335.425781 L 440.554688 342.910156 L 442.804688 342.910156 C 445.050781 342.910156 445.050781 342.910156 444.824219 339.167969 L 444.527344 335.425781 L 451.570312 335.425781 L 451.269531 339.167969 C 451.042969 342.910156 451.042969 342.910156 453.292969 342.910156 L 455.539062 342.910156 L 455.3125 335.425781 C 455.089844 328.085938 455.015625 327.9375 453.214844 327.9375 C 451.570312 327.9375 451.417969 328.238281 451.417969 331.308594 L 451.417969 334.675781 L 444.675781 334.675781 L 444.675781 331.308594 C 444.675781 328.238281 444.527344 327.9375 442.878906 327.9375 C 441.078125 327.9375 441.003906 328.085938 440.78125 335.425781 Z M 440.78125 335.425781 " fill-opacity="1" fill-rule="nonzero"/><path fill="rgb(0%, 0%, 0%)" d="M 366.007812 335.425781 C 366.007812 335.800781 367.734375 336.171875 369.753906 336.171875 C 371.851562 336.171875 373.5 335.800781 373.5 335.425781 C 373.5 334.976562 371.851562 334.675781 369.753906 334.675781 C 367.734375 334.675781 366.007812 334.976562 366.007812 335.425781 Z M 366.007812 335.425781 " fill-opacity="1" fill-rule="nonzero"/><path fill="rgb(0%, 0%, 0%)" d="M 431.113281 354.589844 L 429.316406 356.539062 L 431.191406 356.015625 C 433.738281 355.265625 434.636719 354.292969 433.738281 353.394531 C 433.214844 352.871094 432.390625 353.242188 431.113281 354.589844 Z M 431.113281 354.589844 " fill-opacity="1" fill-rule="nonzero"/><path fill="rgb(0%, 0%, 0%)" d="M 308.320312 356.613281 C 306.824219 357.363281 306.449219 358.109375 306.449219 360.507812 C 306.449219 362.601562 305.921875 364.027344 304.726562 365.222656 C 302.628906 367.320312 302.628906 369.492188 304.875 371.738281 C 306.972656 373.757812 312.292969 374.808594 315.140625 373.683594 C 316.5625 373.160156 317.984375 373.234375 319.859375 373.757812 C 323.230469 374.808594 324.128906 374.058594 321.65625 372.1875 C 320.007812 370.839844 319.859375 370.316406 320.308594 367.246094 C 320.757812 364.101562 320.757812 363.875 319.109375 363.875 C 317.460938 363.875 317.386719 364.027344 318.210938 365.746094 C 319.859375 369.492188 317.835938 369.265625 313.714844 365.375 C 309.667969 361.554688 308.769531 358.933594 310.941406 357.136719 C 312.367188 355.9375 314.988281 356.914062 315.738281 358.859375 C 316.335938 360.355469 316.335938 360.355469 316.785156 358.710938 C 317.085938 357.4375 316.785156 356.914062 315.363281 356.3125 C 312.816406 355.414062 310.570312 355.488281 308.320312 356.613281 Z M 313.191406 369.714844 C 315.4375 371.738281 315.8125 372.410156 314.988281 372.933594 C 313.640625 373.757812 313.339844 373.757812 311.019531 372.859375 C 308.546875 371.960938 306.597656 368.890625 307.195312 366.871094 C 307.722656 365.148438 308.246094 365.375 313.191406 369.714844 Z M 313.191406 369.714844 " fill-opacity="1" fill-rule="nonzero"/><path fill="rgb(0%, 0%, 0%)" d="M 334.769531 365 C 332.519531 370.015625 331.320312 373.609375 331.847656 373.609375 C 332.296875 373.609375 333.121094 372.5625 333.570312 371.363281 C 334.316406 369.339844 334.691406 369.117188 337.839844 369.117188 C 341.136719 369.117188 341.359375 369.265625 341.808594 371.363281 C 342.183594 373.308594 342.558594 373.609375 344.730469 373.609375 L 347.203125 373.609375 L 343.457031 365.523438 C 341.359375 361.105469 339.414062 357.285156 339.113281 356.988281 C 338.8125 356.613281 336.867188 360.28125 334.769531 365 Z M 338.140625 367.46875 C 336.867188 367.621094 335.742188 367.621094 335.59375 367.394531 C 335.441406 367.246094 335.816406 365.824219 336.492188 364.175781 L 337.765625 361.253906 L 340.3125 367.246094 Z M 338.140625 367.46875 " fill-opacity="1" fill-rule="nonzero"/><path fill="rgb(0%, 0%, 0%)" d="M 351.25 359.535156 C 348.929688 362.601562 349.828125 364.476562 355.894531 368.816406 C 357.769531 370.164062 357.992188 370.6875 357.320312 371.8125 C 356.046875 373.984375 353.574219 373.984375 351.398438 371.8125 C 349.675781 370.089844 349.527344 370.089844 349.527344 371.363281 C 349.527344 373.308594 352.222656 374.582031 355.296875 374.132812 C 358.816406 373.535156 360.015625 372.335938 360.015625 369.492188 C 360.015625 367.320312 359.566406 366.722656 356.195312 364.699219 C 351.398438 361.703125 351.398438 359.757812 356.121094 359.832031 C 357.84375 359.832031 359.265625 359.609375 359.265625 359.234375 C 359.265625 358.261719 352 358.558594 351.25 359.535156 Z M 351.25 359.535156 " fill-opacity="1" fill-rule="nonzero"/><path fill="rgb(0%, 0%, 0%)" d="M 364.210938 359.832031 C 361.738281 362.230469 363.164062 365.074219 368.105469 368.070312 C 371.027344 369.789062 371.703125 371.4375 370.054688 372.636719 C 368.105469 374.058594 366.910156 373.832031 364.886719 371.738281 L 363.011719 369.941406 L 363.011719 371.738281 C 363.011719 373.085938 363.539062 373.609375 365.261719 373.984375 C 368.332031 374.65625 371.851562 373.757812 372.753906 372.113281 C 374.25 369.265625 373.578125 367.695312 369.753906 364.925781 C 365.183594 361.628906 364.960938 359.757812 369.230469 359.757812 C 370.730469 359.757812 372.003906 359.535156 372.003906 359.160156 C 372.003906 358.109375 365.410156 358.636719 364.210938 359.832031 Z M 364.210938 359.832031 " fill-opacity="1" fill-rule="nonzero"/><path fill="rgb(0%, 0%, 0%)" d="M 378.597656 360.804688 C 374.101562 364.773438 375.824219 371.886719 381.667969 373.683594 C 385.414062 374.808594 389.683594 373.984375 391.933594 371.738281 C 394.628906 368.96875 394.480469 363.726562 391.558594 360.804688 C 389.609375 358.933594 388.785156 358.636719 385.1875 358.636719 C 381.667969 358.636719 380.617188 358.933594 378.597656 360.804688 Z M 388.785156 361.03125 C 389.535156 362.003906 389.984375 364.324219 389.984375 366.570312 C 389.984375 369.941406 389.683594 370.765625 388.035156 372.035156 C 385.789062 373.832031 384.140625 373.984375 382.34375 372.5625 C 379.34375 370.316406 378.894531 363.652344 381.519531 360.65625 C 383.242188 358.785156 387.363281 359.007812 388.785156 361.03125 Z M 388.785156 361.03125 " fill-opacity="1" fill-rule="nonzero"/><path fill="rgb(0%, 0%, 0%)" d="M 399.050781 360.507812 C 397.027344 362.230469 396.726562 362.976562 396.726562 366.046875 C 396.726562 367.917969 397.25 370.238281 397.851562 371.136719 C 399.347656 373.234375 403.695312 374.65625 406.992188 374.132812 C 410.289062 373.609375 411.710938 372.410156 411.636719 370.316406 C 411.636719 368.742188 411.636719 368.742188 410.960938 370.464844 C 409.464844 374.132812 403.84375 374.507812 401.523438 370.988281 C 399.949219 368.519531 399.949219 363.726562 401.523438 361.253906 C 403.019531 358.933594 407.441406 358.636719 409.6875 360.65625 C 411.113281 361.929688 411.113281 361.929688 410.886719 360.507812 C 410.585938 359.234375 409.914062 359.007812 406.015625 358.785156 C 401.972656 358.558594 401.148438 358.785156 399.050781 360.507812 Z M 399.050781 360.507812 " fill-opacity="1" fill-rule="nonzero"/><path fill="rgb(0%, 0%, 0%)" d="M 415.832031 366.121094 L 415.832031 373.609375 L 419.578125 373.609375 L 419.578125 358.636719 L 415.832031 358.636719 Z M 415.832031 366.121094 " fill-opacity="1" fill-rule="nonzero"/><path fill="rgb(0%, 0%, 0%)" d="M 424.449219 366.121094 L 424.449219 373.609375 L 429.617188 373.609375 C 433.738281 373.609375 434.859375 373.382812 435.234375 372.410156 C 435.910156 370.6875 435.3125 370.316406 434.1875 371.738281 C 433.664062 372.335938 432.089844 372.859375 430.742188 372.859375 C 428.269531 372.859375 428.191406 372.785156 428.191406 369.789062 C 428.191406 366.722656 428.191406 366.722656 430.816406 367.019531 C 433.0625 367.246094 433.4375 367.09375 433.4375 365.824219 C 433.4375 364.625 433.214844 364.550781 432.539062 365.222656 C 432.015625 365.746094 430.890625 366.121094 429.917969 366.121094 C 428.34375 366.121094 428.191406 365.746094 428.191406 362.679688 L 428.191406 359.234375 L 431.191406 359.535156 C 432.839844 359.683594 434.1875 359.535156 434.1875 359.234375 C 434.1875 358.859375 432.015625 358.636719 429.316406 358.636719 L 424.449219 358.636719 Z M 424.449219 366.121094 " fill-opacity="1" fill-rule="nonzero"/><path fill="rgb(0%, 0%, 0%)" d="M 439.058594 360.132812 C 437.035156 362.378906 438.15625 364.847656 442.429688 367.621094 C 446.398438 370.164062 447.074219 371.585938 444.75 372.859375 C 442.578125 373.984375 441.828125 373.832031 439.804688 371.738281 C 438.082031 370.089844 437.933594 370.015625 437.933594 371.4375 C 437.933594 374.957031 446.25 375.179688 447.824219 371.738281 C 449.097656 368.890625 448.046875 366.644531 444.300781 364.398438 C 439.957031 361.855469 439.882812 359.757812 444.152344 359.757812 C 445.648438 359.757812 446.921875 359.535156 446.921875 359.160156 C 446.921875 358.859375 445.425781 358.636719 443.703125 358.636719 C 441.378906 358.636719 440.03125 359.085938 439.058594 360.132812 Z M 439.058594 360.132812 " fill-opacity="1" fill-rule="nonzero"/></svg>